<svg width="390" height="342" viewBox="0 0 390 342" fill="none" xmlns="http://www.w3.org/2000/svg">
<path d="M63.18 107.983H45.04V103.883C45.1384 100.082 44.1159 96.3366 42.1 93.113C40.14 90.083 36.85 88.5696 32.23 88.573C30.1212 88.4821 28.0281 88.9734 26.18 89.993C24.6904 90.895 23.4143 92.1096 22.44 93.553C21.4645 95.1652 20.7997 96.9459 20.48 98.803C20.1177 100.829 19.9403 102.884 19.95 104.943C19.9311 107.023 20.0212 109.102 20.22 111.173C20.3661 112.729 20.818 114.242 21.55 115.623C22.3063 116.979 23.3719 118.137 24.66 119.003C26.4159 120.157 28.294 121.112 30.26 121.853L44.13 127.373C47.6637 128.639 50.9672 130.473 53.91 132.803C56.328 134.791 58.3239 137.242 59.78 140.013C61.1455 143.096 62.0453 146.365 62.45 149.713C62.9505 153.82 63.1876 157.955 63.16 162.093C63.1988 167.095 62.6619 172.084 61.56 176.963C60.6566 181.162 58.9004 185.131 56.4 188.623C53.8404 192.004 50.4793 194.695 46.62 196.453C41.9695 198.477 36.9297 199.45 31.86 199.303C27.6586 199.339 23.4907 198.554 19.59 196.993C15.9286 195.542 12.601 193.361 9.81 190.583C7.07027 187.84 4.86895 184.607 3.32001 181.053C1.69685 177.319 0.879079 173.284 0.920013 169.213V162.443H19.06V168.143C19.0324 171.38 20.065 174.538 22 177.133C23.96 179.8 27.25 181.136 31.87 181.143C34.3419 181.268 36.8085 180.809 39.07 179.803C40.7529 178.95 42.145 177.617 43.07 175.973C44.0704 174.133 44.6478 172.094 44.76 170.003C44.94 167.683 45.03 165.1 45.03 162.253C45.0574 159.519 44.9373 156.785 44.67 154.063C44.5299 152.268 44.0479 150.517 43.25 148.903C42.4118 147.597 41.2866 146.499 39.96 145.693C38.217 144.673 36.4022 143.78 34.53 143.023L21.54 137.683C13.71 134.473 8.46332 130.23 5.79999 124.953C3.13665 119.676 1.80332 113.06 1.79999 105.103C1.7739 100.52 2.43459 95.9598 3.76001 91.573C4.94035 87.53 6.93827 83.7724 9.63 80.533C12.2017 77.3795 15.4572 74.8524 19.15 73.143C23.4824 71.2031 28.1948 70.26 32.94 70.383C37.1897 70.3299 41.4023 71.1786 45.3 72.873C48.9106 74.4499 52.1965 76.6845 54.99 79.463C60.44 85.163 63.1666 91.693 63.17 99.053V107.983H63.18Z" fill="white"/>
<path d="M81.14 198.263V71.4829H98.57L121.87 138.613H122.23L145.35 71.4829H162.96V198.263H144.82V121.163H144.46L126.49 175.653H117.42L99.63 121.163H99.27V198.263H81.14Z" fill="#00E1BE"/>
<path d="M176.31 198.263L204.59 71.4829H219.71L247.99 198.263H229.85L224.51 171.023H199.78L194.44 198.263H176.31ZM221.14 153.923L212.25 107.983H211.89L203 153.923H221.14Z" fill="#FCF7F7"/>
<path d="M261.34 198.263V71.4829H290.51C311.86 71.4829 322.533 83.8896 322.53 108.703C322.53 116.183 321.373 122.533 319.06 127.753C316.75 132.983 312.687 137.196 306.87 140.393L326.44 198.263H307.23L290.33 144.133H279.48V198.263H261.34ZM279.48 88.5829V128.113H289.8C292.417 128.22 295.026 127.763 297.45 126.773C299.27 125.949 300.814 124.62 301.9 122.943C302.929 121.036 303.593 118.953 303.86 116.803C304.241 113.999 304.418 111.172 304.39 108.343C304.413 105.514 304.236 102.687 303.86 99.8829C303.57 97.6572 302.847 95.51 301.73 93.5629C299.48 90.2429 295.21 88.5796 288.92 88.5729H279.48V88.5829Z" fill="#FCF7F7"/>
<path d="M350.28 198.263V88.5829H329.29V71.4929H389.41V88.5829H368.42V198.273H350.28V198.263Z" fill="#FCF7F7"/>
<path d="M1.10001 340.613V216.233H18.22L41.1 282.093H41.45L64.16 216.233H81.45V340.613H63.63V264.973H63.28L45.64 318.433H36.73L19.26 264.973H18.91V340.613H1.10001Z" fill="#F9F9F9"/>
<path d="M97.18 245.583C97.089 241.019 97.9826 236.49 99.8 232.303C101.422 228.64 103.805 225.364 106.79 222.693C109.583 220.247 112.813 218.351 116.31 217.103C121.541 215.221 127.175 214.746 132.648 215.727C138.12 216.708 143.238 219.111 147.49 222.693C150.388 225.401 152.705 228.671 154.3 232.303C156.114 236.491 157.007 241.02 156.92 245.583V311.273C157.047 315.894 156.152 320.487 154.3 324.723C152.698 328.249 150.379 331.403 147.49 333.983C144.65 336.501 141.358 338.459 137.79 339.753C130.859 342.313 123.241 342.313 116.31 339.753C112.781 338.489 109.543 336.527 106.79 333.983C103.811 331.445 101.424 328.284 99.8 324.723C97.9487 320.487 97.0541 315.894 97.18 311.273V245.583ZM115 311.263C115 315.573 116.193 318.746 118.58 320.783C120.96 322.76 123.956 323.843 127.05 323.843C130.144 323.843 133.14 322.76 135.52 320.783C137.91 318.743 139.103 315.57 139.1 311.263V245.573C139.1 241.263 137.907 238.09 135.52 236.053C133.14 234.075 130.144 232.993 127.05 232.993C123.956 232.993 120.96 234.075 118.58 236.053C116.19 238.093 114.997 241.266 115 245.573V311.263Z" fill="#00E1BE"/>
<path d="M171.95 340.613V216.233H189.07L215.97 291.173H216.32V216.233H234.14V340.613H217.37L190.12 265.843H189.77V340.613H171.95Z" fill="#00E1BE"/>
<path d="M250.21 340.613V216.233H303.32V233.003H268.03V269.513H298.78V286.283H268.03V322.793H303.32V340.613H250.21Z" fill="#00E1BE"/>
<path d="M331.44 340.613V288.033L306.98 216.233H325.85L340.18 265.673H340.53L354.85 216.233H373.72L349.26 288.033V340.613H331.44Z" fill="#00E1BE"/>
<path d="M0.019989 0.74292H6.12L17.92 29.2029H18.16L29.48 0.74292H35.58V46.2229H29.56V15.4229H29.32L19.28 38.5529H16.31L6.26999 15.4229H6.03V46.2229H0.0100098V0.74292H0.019989Z" fill="#F7F2F2"/>
<path d="M62.58 0.74292H85.15V5.22293H68.6V21.0729H83.22V25.2929H68.6V41.7329H85.38V46.2129H62.57V0.74292H62.58Z" fill="#F7F2F2"/>
<path d="M115.34 0.74292L131.24 34.5929V0.74292H137.26V46.2229H131.24L115.34 13.0229V46.2229H109.32V0.74292H115.34Z" fill="#F7F2F2"/>
<path d="M187.62 0.74292V5.22293H177.18V46.2229H171.16V5.22293H160.8V0.74292H187.62Z" fill="#F7F2F2"/>
<path d="M208.74 12.243C208.74 8.86301 209.06 5.613 212.76 2.823C215.01 1.073 218.22 0.0930176 222.24 0.0930176C226.26 0.0930176 229.47 1.063 231.72 2.823C235.41 5.613 235.74 8.86301 235.74 12.243V34.723C235.74 38.103 235.42 41.353 231.72 44.143C229.47 45.893 226.26 46.873 222.24 46.873C218.22 46.873 215.01 45.903 212.76 44.143C209.07 41.353 208.74 38.103 208.74 34.723V12.243ZM229.7 11.203C229.794 10.2994 229.651 9.38681 229.284 8.55551C228.918 7.72421 228.341 7.00296 227.61 6.46301C226.015 5.40639 224.143 4.84293 222.23 4.84293C220.316 4.84293 218.445 5.40639 216.85 6.46301C216.119 7.00296 215.542 7.72421 215.176 8.55551C214.809 9.38681 214.666 10.2994 214.76 11.203V35.763C214.671 36.6763 214.816 37.5972 215.182 38.4388C215.548 39.2803 216.122 40.0149 216.85 40.573C218.459 41.592 220.325 42.133 222.23 42.133C224.135 42.133 226.001 41.592 227.61 40.573C228.339 40.0154 228.914 39.281 229.279 38.4393C229.645 37.5975 229.79 36.6764 229.7 35.763V11.203Z" fill="#F7F2F2"/>
<path d="M273.55 0.74292C279.65 0.74292 288.41 1.45293 288.41 11.5329V15.1029C288.41 20.1029 285.84 23.4829 280.7 24.7829L289.69 46.2229H283.43L275.16 25.7529H268.33V46.2229H262.31V0.74292H273.55ZM268.33 21.5329H274.27C278.69 21.5329 282.38 19.4529 282.38 15.4229V11.1329C282.38 5.4829 277 4.96292 273.95 4.96292H268.33V21.5329Z" fill="#F7F2F2"/>
<path d="M320.53 0.74292V46.2229H314.51V0.74292H320.53Z" fill="#F7F2F2"/>
<path d="M369.35 46.2229L366.54 36.0829H353.85L351.12 46.2229H345.26L357.47 0.74292H362.93L375.22 46.2229H369.35ZM360.04 10.4829L354.66 31.9229H365.66L360.04 10.4829Z" fill="#F7F2F2"/>
</svg>
